# xmcd
#
# Track frame offsets:
#   150
#   13053
#   27174
#   40919
#   55546
#   75433
#   89462
#   102790
#   119868
#   135664
#   148369
#   166221
#   181800
#   193308
#   205145
#   229319
#   243664
#   255182
#   271404
#   287261
#   300134
#   309279
#
# Disc length: 4306 seconds
#
# Revision: 0
# Processed by: cddbd v1.5.1PL0 Copyright (c) Steve Scherf et al.
# Submitted via: uFREEDB ActiveX Control 1.5
#
DISCID=2710d016
DTITLE=Porto Seguro - .
DYEAR=1900
DGENRE=Alternative
TTITLE0=Beto Jamaica - Ei Moça
TTITLE1=Os Sungas - Dança do Surfista
TTITLE2=Mr. Buribai - Mexe o Bole Bole
TTITLE3=Pressão - Guig Gueto
TTITLE4=Cortesia do Samba - Bateu
TTITLE5=Guig Gueto - Puxadinha
TTITLE6=Os Bambas - Arrocha
TTITLE7=Batom na Cueca - Arrasta
TTITLE8=Vira e Mexe - Virou Mania
TTITLE9=Os Bambas - Picasso
TTITLE10=Dygnow - Abre, Abre
TTITLE11=Margareth M. - Marmelada
TTITLE12=Psirico - Quebre Quebre
TTITLE13=Sai de Banda - Mosquito
TTITLE14=Sai de Banda - Chora Cavaco
TTITLE15=Swingueto - Levada da Breca
TTITLE16=Os Bambas - Diana Vai Varre
TTITLE17=Marrom Soset - Empurra
TTITLE18=É O Tchan - Mexa Amor
TTITLE19=Mc.Pelé - Festa da Alegria
TTITLE20=Pagod'Art - Sprinofai
TTITLE21=Gil - Perêrê
EXTD=
EXTT0=
EXTT1=
EXTT2=
EXTT3=
EXTT4=
EXTT5=
EXTT6=
EXTT7=
EXTT8=
EXTT9=
EXTT10=
EXTT11=
EXTT12=
EXTT13=
EXTT14=
EXTT15=
EXTT16=
EXTT17=
EXTT18=
EXTT19=
EXTT20=
EXTT21=
PLAYORDER=
